inDegrees=yes
name=ik_S44_A12_T01
DataType=double
version=3
OpenSimVersion=4.3-2021-08-27-4bc7ad9
endheader
time	pelvis_tilt	pelvis_list	pelvis_rotation	pelvis_tx	pelvis_ty	pelvis_tz	hip_flexion_r	hip_adduction_r	hip_rotation_r	knee_angle_r	knee_angle_r_beta	ankle_angle_r	subtalar_angle_r	mtp_angle_r	hip_flexion_l	hip_adduction_l	hip_rotation_l	knee_angle_l	knee_angle_l_beta	ankle_angle_l	subtalar_angle_l	mtp_angle_l	lumbar_extension	lumbar_bending	lumbar_rotation	arm_flex_r	arm_add_r	arm_rot_r	elbow_flex_r	pro_sup_r	wrist_flex_r	wrist_dev_r	arm_flex_l	arm_add_l	arm_rot_l	elbow_flex_l	pro_sup_l	wrist_flex_l	wrist_dev_l
10.99999999999985	-0.8570101625294186	3.386112380604906	34.14960002220168	0	0.9399999999999999	0	31.414392656685	-9.432867586959953	-8.773838719804699	35.54131747091891	0.6203130103641189	0	0	0	31.414392656685	-9.432867586959953	-8.773838719804699	35.54131747091891	0.6203130103641189	0	0	0	1.945005691107496	2.93931209229449	1.87992036353407	2.814739148452946	-10.6186181511779	-2.378166408225438	8.070580920818408	109.4701334466283	0	0	104.0412615084405	-11.07738160386818	24.5135405753873	13.75427393858349	78.99628179259597	0	0
11.01999999999985	-0.8616674293554885	3.38226665401422	34.2072167804391	0	0.9399999999999999	0	31.41522462960916	-9.432983598743684	-8.774000343745278	35.54217382501187	0.6203279565626041	0	0	0	31.41522462960916	-9.432983598743684	-8.774000343745278	35.54217382501187	0.6203279565626041	0	0	0	1.938134283167378	2.939901130412548	1.896271114608498	2.789711950214374	-10.62554366321173	-2.399469487208306	8.063205766668275	109.4658064663951	0	0	104.081538499914	-11.16924662405252	24.52120426870284	13.74699265748998	79.02080527087533	0	0
11.03999999999985	-0.8691562721931221	3.38598945045332	34.24188962481098	0	0.9399999999999999	0	31.44083502280846	-9.436038021937865	-8.778578010747076	35.56873435175903	0.620791525205406	0	0	0	31.44083502280846	-9.436038021937865	-8.778578010747076	35.56873435175903	0.620791525205406	0	0	0	1.932359757344647	2.948576831533221	1.907397110827905	2.77409137860117	-10.65249014178802	-2.369271482170848	8.188549005888348	109.4291087623189	0	0	104.0741849855166	-11.18192680522881	24.50227241524799	13.84958282222512	79.04762235486037	0	0
11.05999999999985	-0.8726045608953666	3.384813888325837	34.28992321934616	0	0.9399999999999999	0	31.4435259541954	-9.436416018843358	-8.779103510426431	35.57147815990422	0.6208394136915826	0	0	0	31.4435259541954	-9.436416018843358	-8.779103510426431	35.57147815990422	0.6208394136915826	0	0	0	1.929168235229028	2.949005797486523	1.898316068531785	2.77268598880287	-10.64479058153755	-2.316601780395258	8.099837299160063	109.435807334817	0	0	104.1021391223334	-11.26638423131569	24.70242649471153	13.71273135117985	79.16369349104271	0	0
11.07999999999985	-0.8764100328721565	3.382900847765152	34.33345710640224	0	0.9399999999999999	0	31.44440182997408	-9.436537823204489	-8.779273460492387	35.57237908103046	0.6208551377315363	0	0	0	31.44440182997408	-9.436537823204489	-8.779273460492387	35.57237908103046	0.6208551377315363	0	0	0	1.924184967960494	2.950589226256053	1.912775980674539	2.760926979308795	-10.65083561072321	-2.309913049675554	8.089560733401777	109.4419996702576	0	0	104.1663154630812	-11.29705759474187	24.6955747000934	13.70832069274147	79.16314564551614	0	0
11.09999999999985	-0.8973160264147134	3.368690570562403	34.38653044688649	0	0.9399999999999999	0	31.44675328004091	-9.436868113437599	-8.779732690555102	35.57477576842988	0.6208969678177972	0	0	0	31.44675328004091	-9.436868113437599	-8.779732690555102	35.57477576842988	0.6208969678177972	0	0	0	1.897912928853963	2.951921044427428	1.929159872992371	2.777616931617395	-10.66014890422129	-2.305201335411759	8.096678250681906	109.4518044680397	0	0	104.2544233659685	-11.31992207694929	24.72147335472585	13.66943372702727	79.25597041838493	0	0
11.11999999999985	-0.912713828478782	3.368667224566039	34.46372923818917	0	0.9399999999999999	0	31.44922903419127	-9.437215565440173	-8.780215956516866	35.57730041274391	0.6209410311735187	0	0	0	31.44922903419127	-9.437215565440173	-8.780215956516866	35.57730041274391	0.6209410311735187	0	0	0	1.883222666135688	2.963176362164007	1.965941247853453	2.780559709546802	-10.66859764749735	-2.332904144146053	8.092815081265229	109.4313050630069	0	0	104.2567938083626	-11.25246057738974	24.74084098942836	13.61567096577433	79.28296403494159	0	0
11.13999999999985	-0.9182826960713866	3.371791970509062	34.50445721461216	0	0.9399999999999999	0	31.45069434183296	-9.43742039500899	-8.780501273254247	35.57879947098569	0.620967194675517	0	0	0	31.45069434183296	-9.43742039500899	-8.780501273254247	35.57879947098569	0.620967194675517	0	0	0	1.879829693605891	2.969625019235586	1.975930506339407	2.771509933545605	-10.69847279671622	-2.310420885970247	8.086722621055358	109.4294916229147	0	0	104.2681426069492	-11.268139256371	24.8008890902324	13.57900528837109	79.34961953519932	0	0
11.15999999999985	-0.9315251787286176	3.363712320344451	34.5648249702611	0	0.9399999999999999	0	31.45384273563462	-9.437862479289317	-8.781116128470622	35.58200647554421	0.6210231674641897	0	0	0	31.45384273563462	-9.437862479289317	-8.781116128470622	35.58200647554421	0.6210231674641897	0	0	0	1.86332483824987	2.971737435842315	1.992958753181336	2.768542413946463	-10.68559491034768	-2.294427010188417	8.08100397501221	109.4437631904636	0	9.795287848726041e-38	104.3359676770547	-11.24856151163094	24.84525732863395	13.51612764855484	79.54505917264434	0	9.795287848726041e-38
11.17999999999985	-0.9401247575075315	3.369214471623409	34.6374744750472	0	0.9399999999999999	0	31.45660271423667	-9.438249404200572	-8.781654617629602	35.58482077027335	0.6210722861733348	0	0	0	31.45660271423667	-9.438249404200572	-8.781654617629602	35.58482077027335	0.6210722861733348	0	0	0	1.857452157873111	2.983643364018575	2.029252921189963	2.754496981369382	-10.68999455607105	-2.330178177783361	8.075521302158467	109.4197993943934	0	0	104.3258339436637	-11.18502364988657	24.82271633102085	13.52112117207952	79.56798086242566	0	0
11.19999999999985	-0.9403557560588763	3.372390906362311	34.66173645795882	0	0.9399999999999999	0	31.46667595661043	-9.439210157474562	-8.783263930936187	35.59550087596462	0.6212586891821084	0	0	0	31.46667595661043	-9.439210157474562	-8.783263930936187	35.59550087596462	0.6212586891821084	0	0	0	1.85834704849067	2.987019979595745	2.035091382298549	2.739382991284974	-10.70239007680443	-2.294038101475699	8.0336018947946	109.4544371904332	0	0	104.3088015967008	-11.18836331217038	24.79737792196244	13.51351091688455	79.5406709565742	0	0
11.21999999999985	-0.9477312881585978	3.374436479791159	34.70679992572812	0	0.9399999999999999	0	31.46687087168776	-9.439235769077388	-8.783300422130203	35.59571073585621	0.6212623519281844	0	0	0	31.46687087168776	-9.439235769077388	-8.783300422130203	35.59571073585621	0.6212623519281844	0	0	0	1.85249009329393	2.994178636085843	2.053853680138408	2.741273161466578	-10.70334177221364	-2.292856150814519	8.036753270347583	109.4542182853985	0	0	104.2999321917135	-11.19579072417474	24.80952884611554	13.51139894041979	79.55003786927495	0	0
11.23999999999985	-0.9428690209521234	3.379544988783394	34.77342124173346	0	0.9399999999999999	0	31.48037377302482	-9.440754907775485	-8.785639070993781	35.60981522975023	0.6215085217859626	0	0	0	31.48037377302482	-9.440754907775485	-8.785639070993781	35.60981522975023	0.6215085217859626	0	0	0	1.857557417398083	2.997644414026412	2.08057702092438	2.706656334697987	-10.70092451527243	-2.356039881520536	8.067242791771065	109.4864381538087	0	0	104.2793490077295	-11.09539513006787	24.76500267773062	13.46911284430663	79.73291235195559	0	0
11.25999999999985	-0.9387294154173278	3.383651977569905	34.82440665102192	0	0.9399999999999999	0	31.48133662217993	-9.440887518573955	-8.785824859380073	35.61081031684616	0.6215258893321305	0	0	0	31.48133662217993	-9.440887518573955	-8.785824859380073	35.61081031684616	0.6215258893321305	0	0	0	1.862534445006363	2.999687613442491	2.095977340879891	2.673290022445905	-10.70342518847776	-2.425368667548256	8.062267044513058	109.4773843299077	0	0	104.3239885747238	-11.16006965507215	24.74808727212377	13.49391019442091	79.75496598879164	0	0
11.27999999999985	-0.9451805015148025	3.397148066180881	34.85083769828903	0	0.9399999999999999	0	31.50214627869031	-9.443142984420197	-8.78936619906794	35.63262709014285	0.6219066638583191	0	0	0	31.50214627869031	-9.443142984420197	-8.78936619906794	35.63262709014285	0.6219066638583191	0	0	0	1.864008269760389	3.01502359579843	2.097202201649171	2.632558840041519	-10.74188208060982	-2.458347212016543	8.115997838321009	109.4643974976702	0	1.157592994655412e-37	104.335145113699	-11.20139949218828	24.78136453071549	13.57933133247556	79.7795216615016	0	1.157592994655412e-37
11.29999999999985	-0.9299367208305993	3.392860749661525	34.89914099670471	0	0.9399999999999999	0	31.50632043222111	-9.443721877884085	-8.790175485877374	35.63690569973959	0.6219813396831896	0	0	0	31.50632043222111	-9.443721877884085	-8.790175485877374	35.63690569973959	0.6219813396831896	0	0	0	1.872761821953114	3.004337601959187	2.120580311590131	2.594209758833063	-10.70711630322067	-2.605729609677592	8.099786546211858	109.5942020219896	0	0	104.246642398777	-11.11417759956271	24.98812429691412	13.68738546216099	79.77611633799529	0	0
11.31999999999985	-0.9347624755613061	3.398140270139265	34.93316397666062	0	0.9399999999999999	0	31.51066561181032	-9.444324114475776	-8.791017718526437	35.64135891617566	0.622059062972303	0	0	0	31.51066561181032	-9.444324114475776	-8.791017718526437	35.64135891617566	0.622059062972303	0	0	0	1.870575806201657	3.012927376228777	2.141755544366414	2.568858786858174	-10.71718204704569	-2.686255435038114	8.061620420781901	109.6784124240087	0	0	104.2040059552597	-11.02572798050573	25.1205901665558	13.72013465042771	79.58442723821474	0	0
11.33999999999985	-0.9579087509234148	3.3924287322239	35.03165091647489	0	0.9399999999999999	0	31.51346277085901	-9.444710964976046	-8.79155919532344	35.6442298538465	0.6221091702872785	0	0	0	31.51346277085901	-9.444710964976046	-8.79155919532344	35.6442298538465	0.6221091702872785	0	0	0	1.846006269191377	3.024570372383317	2.185025131568259	2.541517505304458	-10.75590837760214	-2.779617979224531	8.083123819336375	109.6462969979742	0	0	104.2604796928085	-10.85808640493381	25.17326455902748	13.71379659754007	79.61145066965278	0	0
11.35999999999985	-0.9958537663605251	3.355724448701725	35.13047026015084	0	0.9399999999999999	0	31.51724596567158	-9.445237054583481	-8.792294198902049	35.64809230305443	0.6221765827431479	0	0	0	31.51724596567158	-9.445237054583481	-8.792294198902049	35.64809230305443	0.6221765827431479	0	0	0	1.791774832294043	3.018966222982888	2.221194672414257	2.560313948804668	-10.74622989907234	-2.822187279983269	8.073107534406683	109.6568630961328	0	0	104.3543118974607	-10.71263147562218	25.25361832046394	13.68103783494075	79.84471454444258	0	0
11.37999999999985	-1.050948887292375	3.33817103380614	35.20022385839208	0	0.9399999999999999	0	31.51946875218686	-9.445544092223068	-8.792724225497642	35.65037425187641	0.6222164102634536	0	0	0	31.51946875218686	-9.445544092223068	-8.792724225497642	35.65037425187641	0.6222164102634536	0	0	0	1.735250901603869	3.038029322380962	2.242638186746606	2.643906026714006	-10.79426480154481	-2.895555667211315	8.059965690168033	109.6690742079208	0	0	104.3597465009983	-10.6628098774264	25.39331244742156	13.70704799729158	79.90400639938035	0	0
